<svg width="465" height="192" viewBox="0 0 465 192" fill="none" xmlns="http://www.w3.org/2000/svg">
<path d="M272.761 79.4366C272.761 123.308 237.196 158.873 193.324 158.873C149.452 158.873 113.887 123.308 113.887 79.4366C113.887 35.565 149.452 0 193.324 0C237.196 0 272.761 35.565 272.761 79.4366Z" fill="#FFDD00"/>
<path d="M187.577 102.085C187.577 133.448 162.152 158.873 130.789 158.873C99.4252 158.873 74 133.448 74 102.085C74 70.721 99.4252 45.2958 130.789 45.2958C162.152 45.2958 187.577 70.721 187.577 102.085Z" fill="#FFDD00"/>
<path d="M256.535 129.127C256.535 163.851 228.386 192 193.662 192C158.938 192 130.789 163.851 130.789 129.127C130.789 94.4028 158.938 66.2535 193.662 66.2535C228.386 66.2535 256.535 94.4028 256.535 129.127Z" fill="#FFDD00"/>
<path d="M327.521 123.042C327.521 157.766 299.372 185.915 264.648 185.915C229.924 185.915 201.775 157.766 201.775 123.042C201.775 88.3183 229.924 60.169 264.648 60.169C299.372 60.169 327.521 88.3183 327.521 123.042Z" fill="#FFDD00"/>
<path d="M92.3807 67.4091L76.9261 160.5H61.9262L28.608 97.0909H27.8807L17.2898 160.5H0.426147L15.8807 67.4091H30.9716L64.2443 130.864H65.108L75.608 67.4091H92.3807Z" fill="#1E1E1E"/>
<path d="M94.5739 160.5L106.21 90.6818H122.665L111.028 160.5H94.5739ZM116.847 80.6818C114.21 80.6818 112.028 79.803 110.301 78.0454C108.574 76.2879 107.816 74.1818 108.028 71.7273C108.241 69.2727 109.347 67.1667 111.347 65.4091C113.377 63.6515 115.695 62.7727 118.301 62.7727C120.938 62.7727 123.104 63.6515 124.801 65.4091C126.528 67.1667 127.286 69.2727 127.074 71.7273C126.892 74.1818 125.786 76.2879 123.756 78.0454C121.756 79.803 119.453 80.6818 116.847 80.6818Z" fill="#1E1E1E"/>
<path d="M127.994 160.5L139.631 90.6818H155.403L153.403 102.545H154.267C156.388 98.5455 159.313 95.4242 163.04 93.1818C166.767 90.9091 170.964 89.7727 175.631 89.7727C180.328 89.7727 184.116 90.9242 186.994 93.2273C189.903 95.5 191.691 98.6061 192.358 102.545H193.085C195.267 98.6364 198.388 95.5303 202.449 93.2273C206.54 90.9242 211.131 89.7727 216.222 89.7727C222.585 89.7727 227.464 91.803 230.858 95.8636C234.252 99.9242 235.297 105.848 233.994 113.636L226.176 160.5H209.722L217.176 116.182C217.843 111.848 217.176 108.682 215.176 106.682C213.206 104.652 210.555 103.636 207.222 103.636C203.252 103.636 199.949 104.864 197.313 107.318C194.706 109.773 193.1 112.985 192.494 116.955L185.176 160.5H169.04L176.585 115.5C177.131 111.894 176.494 109.015 174.676 106.864C172.888 104.712 170.252 103.636 166.767 103.636C164.403 103.636 162.146 104.242 159.994 105.455C157.843 106.667 156.009 108.364 154.494 110.545C153.009 112.697 152.04 115.197 151.585 118.045L144.494 160.5H127.994Z" fill="#1E1E1E"/>
<path d="M243.551 160.5L259.006 67.4091H275.46L269.733 102.227H270.46C271.551 100.53 273.021 98.7273 274.869 96.8182C276.748 94.8788 279.127 93.2273 282.006 91.8636C284.884 90.4697 288.369 89.7727 292.46 89.7727C297.854 89.7727 302.491 91.1515 306.369 93.9091C310.248 96.6364 313.021 100.682 314.688 106.045C316.354 111.379 316.551 117.924 315.278 125.682C314.006 133.348 311.672 139.864 308.278 145.227C304.884 150.591 300.778 154.682 295.96 157.5C291.142 160.318 285.991 161.727 280.506 161.727C276.506 161.727 273.294 161.061 270.869 159.727C268.475 158.394 266.642 156.788 265.369 154.909C264.097 153 263.172 151.197 262.597 149.5H261.551L259.733 160.5H243.551ZM265.506 125.591C264.778 130.106 264.763 134.061 265.46 137.455C266.188 140.848 267.612 143.5 269.733 145.409C271.884 147.288 274.718 148.227 278.233 148.227C281.839 148.227 285.021 147.258 287.778 145.318C290.566 143.348 292.869 140.667 294.688 137.273C296.506 133.848 297.778 129.955 298.506 125.591C299.203 121.258 299.203 117.409 298.506 114.045C297.839 110.682 296.43 108.045 294.278 106.136C292.157 104.227 289.278 103.273 285.642 103.273C282.097 103.273 278.945 104.197 276.188 106.045C273.43 107.894 271.142 110.485 269.324 113.818C267.506 117.152 266.233 121.076 265.506 125.591Z" fill="#1E1E1E"/>
<path d="M372.812 131.136L379.585 90.6818H396.04L384.403 160.5H368.449L370.54 148.091H369.812C367.631 152 364.509 155.197 360.449 157.682C356.419 160.167 351.782 161.409 346.54 161.409C341.964 161.409 338.1 160.394 334.949 158.364C331.797 156.303 329.555 153.318 328.222 149.409C326.919 145.47 326.722 140.712 327.631 135.136L335.085 90.6818H351.54L344.54 132.591C343.843 137.015 344.479 140.53 346.449 143.136C348.449 145.742 351.419 147.045 355.358 147.045C357.782 147.045 360.222 146.455 362.676 145.273C365.161 144.091 367.328 142.333 369.176 140C371.025 137.636 372.237 134.682 372.812 131.136Z" fill="#1E1E1E"/>
<path d="M465.006 109.136L449.869 110.773C449.718 109.227 449.248 107.788 448.46 106.455C447.672 105.121 446.491 104.061 444.915 103.273C443.369 102.455 441.369 102.045 438.915 102.045C435.339 102.045 432.203 102.848 429.506 104.455C426.809 106.061 425.278 108.121 424.915 110.636C424.581 112.515 425.036 114.045 426.278 115.227C427.521 116.409 429.824 117.409 433.188 118.227L444.733 120.773C451.097 122.197 455.672 124.5 458.46 127.682C461.278 130.864 462.263 135.03 461.415 140.182C460.688 144.485 458.809 148.273 455.778 151.545C452.748 154.788 448.869 157.318 444.142 159.136C439.445 160.955 434.233 161.864 428.506 161.864C419.809 161.864 413.112 160.061 408.415 156.455C403.748 152.818 401.43 147.818 401.46 141.455L417.642 139.909C417.824 143.061 418.93 145.439 420.96 147.045C422.991 148.621 425.809 149.424 429.415 149.455C433.475 149.485 436.9 148.636 439.688 146.909C442.506 145.152 444.097 143.015 444.46 140.5C444.763 138.621 444.294 137.091 443.051 135.909C441.839 134.727 439.672 133.788 436.551 133.091L425.097 130.591C418.612 129.167 413.991 126.758 411.233 123.364C408.506 119.939 407.581 115.621 408.46 110.409C409.188 106.167 410.96 102.515 413.778 99.4545C416.627 96.3636 420.278 93.9848 424.733 92.3182C429.188 90.6212 434.172 89.7727 439.688 89.7727C447.991 89.7727 454.248 91.5152 458.46 95C462.672 98.4848 464.854 103.197 465.006 109.136Z" fill="#1E1E1E"/>
</svg>
